<svg width="41" height="41" viewBox="0 0 41 41" fill="none" xmlns="http://www.w3.org/2000/svg">
<path d="M6.83331 17.0834L5.62552 18.2912L4.41772 17.0834L5.62552 15.8757L6.83331 17.0834ZM35.875 30.7501C35.875 31.2032 35.695 31.6377 35.3746 31.9581C35.0542 32.2785 34.6197 32.4584 34.1666 32.4584C33.7136 32.4584 33.279 32.2785 32.9587 31.9581C32.6383 31.6377 32.4583 31.2032 32.4583 30.7501H35.875ZM14.1672 26.8329L5.62552 18.2912L8.0411 15.8757L16.5828 24.4173L14.1672 26.8329ZM5.62552 15.8757L14.1672 7.33398L16.5828 9.74957L8.0411 18.2912L5.62552 15.8757ZM6.83331 15.3751H23.9166V18.7918H6.83331V15.3751ZM35.875 27.3334V30.7501H32.4583V27.3334H35.875ZM23.9166 15.3751C27.0882 15.3751 30.1298 16.635 32.3725 18.8776C34.6151 21.1202 35.875 24.1619 35.875 27.3334H32.4583C32.4583 25.0681 31.5584 22.8954 29.9565 21.2936C28.3546 19.6917 26.182 18.7918 23.9166 18.7918V15.3751Z" fill="white"/>
</svg>
