<svg width="42" height="26" viewBox="0 0 42 26" fill="none" xmlns="http://www.w3.org/2000/svg">
<path d="M5.30518 21.2147C5.30518 22.0861 5.70605 22.9218 6.41962 23.538C7.13318 24.1542 8.10098 24.5004 9.11011 24.5004C10.1192 24.5004 11.087 24.1542 11.8006 23.538C12.5142 22.9218 12.9151 22.0861 12.9151 21.2147C12.9151 20.3432 12.5142 19.5075 11.8006 18.8913C11.087 18.2751 10.1192 17.929 9.11011 17.929C8.10098 17.929 7.13318 18.2751 6.41962 18.8913C5.70605 19.5075 5.30518 20.3432 5.30518 21.2147ZM28.1348 21.2147C28.1348 22.0861 28.5357 22.9218 29.2492 23.538C29.9628 24.1542 30.9306 24.5004 31.9397 24.5004C32.9489 24.5004 33.9167 24.1542 34.6302 23.538C35.3438 22.9218 35.7447 22.0861 35.7447 21.2147C35.7447 20.3432 35.3438 19.5075 34.6302 18.8913C33.9167 18.2751 32.9489 17.929 31.9397 17.929C30.9306 17.929 29.9628 18.2751 29.2492 18.8913C28.5357 19.5075 28.1348 20.3432 28.1348 21.2147Z" stroke="black" stroke-width="3" stroke-linecap="round" stroke-linejoin="round"/>
<path d="M5.30494 21.2144H1.5V3.14309C1.5 2.70738 1.70044 2.28952 2.05722 1.98142C2.414 1.67333 2.8979 1.50024 3.40247 1.50024H30.037C32.5599 1.50024 34.9794 2.71184 36.7633 4.8685C38.5472 7.02516 39.5494 9.95021 39.5494 13.0002V21.2144H35.7444M28.1346 21.2144H12.9148" stroke="black" stroke-width="3" stroke-linecap="round" stroke-linejoin="round"/>
<path d="M28.1346 1.50024L30.9883 13.0002H39.5494M1.5 9.71449H30.037M11.0123 1.50024V9.71449M20.5247 1.50024V9.71449" stroke="black" stroke-width="3" stroke-linecap="round" stroke-linejoin="round"/>
</svg>
