<svg width="34" height="34" viewBox="0 0 34 34" fill="none" xmlns="http://www.w3.org/2000/svg">
<path d="M16.6667 16.6667C14.375 16.6667 12.4132 15.8507 10.7812 14.2187C9.14931 12.5868 8.33333 10.625 8.33333 8.33333C8.33333 6.04167 9.14931 4.07986 10.7812 2.44792C12.4132 0.815973 14.375 0 16.6667 0C18.9583 0 20.9201 0.815973 22.5521 2.44792C24.184 4.07986 25 6.04167 25 8.33333C25 10.625 24.184 12.5868 22.5521 14.2187C20.9201 15.8507 18.9583 16.6667 16.6667 16.6667ZM0 33.3333V27.5C0 26.3194 0.304167 25.2347 0.9125 24.2458C1.52083 23.2569 2.32778 22.5014 3.33333 21.9792C5.48611 20.9028 7.67361 20.0958 9.89583 19.5583C12.1181 19.0208 14.375 18.7514 16.6667 18.75C18.9583 18.7486 21.2153 19.0181 23.4375 19.5583C25.6597 20.0986 27.8472 20.9056 30 21.9792C31.0069 22.5 31.8146 23.2556 32.4229 24.2458C33.0312 25.2361 33.3347 26.3208 33.3333 27.5V33.3333H0ZM4.16667 29.1667H29.1667V27.5C29.1667 27.1181 29.0715 26.7708 28.8813 26.4583C28.691 26.1458 28.4389 25.9028 28.125 25.7292C26.25 24.7917 24.3576 24.0889 22.4479 23.6208C20.5382 23.1528 18.6111 22.9181 16.6667 22.9167C14.7222 22.9153 12.7951 23.15 10.8854 23.6208C8.97569 24.0917 7.08333 24.7944 5.20833 25.7292C4.89583 25.9028 4.64375 26.1458 4.45208 26.4583C4.26042 26.7708 4.16528 27.1181 4.16667 27.5V29.1667ZM16.6667 12.5C17.8125 12.5 18.7937 12.0924 19.6104 11.2771C20.4271 10.4618 20.8347 9.48056 20.8333 8.33333C20.8319 7.18611 20.4243 6.20555 19.6104 5.39167C18.7965 4.57778 17.8153 4.16944 16.6667 4.16667C15.5181 4.16389 14.5375 4.57222 13.725 5.39167C12.9125 6.21111 12.5042 7.19167 12.5 8.33333C12.4958 9.475 12.9042 10.4563 13.725 11.2771C14.5458 12.0979 15.5264 12.5056 16.6667 12.5Z" fill="black"/>
</svg>
