<svg width="29" height="29" viewBox="0 0 29 29" fill="none" xmlns="http://www.w3.org/2000/svg">
<path d="M26.7444 29L16.5944 18.85C15.7889 19.4944 14.8625 20.0046 13.8153 20.3806C12.7681 20.7565 11.6537 20.9444 10.4722 20.9444C7.54537 20.9444 5.06856 19.9305 3.04178 17.9027C1.015 15.8748 0.00107493 13.398 8.5244e-07 10.4722C-0.00107322 7.54644 1.01285 5.06963 3.04178 3.04178C5.0707 1.01393 7.54752 0 10.4722 0C13.3969 0 15.8743 1.01393 17.9043 3.04178C19.9343 5.06963 20.9477 7.54644 20.9444 10.4722C20.9444 11.6537 20.7565 12.7681 20.3806 13.8153C20.0046 14.8625 19.4944 15.7889 18.85 16.5944L29 26.7444L26.7444 29ZM10.4722 17.7222C12.4861 17.7222 14.1982 17.0176 15.6084 15.6084C17.0187 14.1993 17.7233 12.4872 17.7222 10.4722C17.7211 8.45726 17.0166 6.74572 15.6084 5.33761C14.2003 3.9295 12.4883 3.22437 10.4722 3.22222C8.45619 3.22007 6.74465 3.9252 5.33761 5.33761C3.93058 6.75002 3.22545 8.46156 3.22222 10.4722C3.219 12.4829 3.92413 14.195 5.33761 15.6084C6.75109 17.0219 8.46263 17.7265 10.4722 17.7222Z" fill="#002159"/>
</svg>
